<svg xmlns="http://www.w3.org/2000/svg" width="64" height="64" viewBox="0 0 64 64">
  <rect width="64" height="64" rx="12" fill="#181512"/>
  <g transform="translate(13.65 42.92)">
    <path d="M8.47-18.24L6.69-18.24L6.69-11.82L8.47-11.82Q10.59-11.82 11.45-12.54Q12.30-13.26 12.30-15.03Q12.30-16.80 11.45-17.52Q10.59-18.24 8.47-18.24M2.37 0L2.37-21.87L8.31-21.87Q12.83-21.87 14.82-20.26Q16.80-18.65 16.80-15.03Q16.80-11.41 14.82-9.80Q12.83-8.19 8.31-8.19L6.69-8.19L6.69 0L2.37 0M27.66-8.79L25.53-9.59Q22.27-10.84 21.11-12.21Q19.95-13.58 19.95-15.89Q19.95-18.87 21.86-20.57Q23.76-22.27 27.08-22.27Q28.59-22.27 30.10-21.92Q31.61-21.58 33.09-20.90L33.09-16.68Q31.70-17.67 30.26-18.18Q28.83-18.69 27.42-18.69Q25.85-18.69 25.02-18.06Q24.18-17.43 24.18-16.26Q24.18-15.35 24.79-14.76Q25.40-14.17 27.33-13.45L29.19-12.74Q31.83-11.78 33.08-10.18Q34.32-8.58 34.32-6.15Q34.32-2.84 32.37-1.21Q30.41 0.42 26.46 0.42Q24.83 0.42 23.20 0.04Q21.56-0.35 20.04-1.11L20.04-5.58Q21.77-4.35 23.39-3.75Q25-3.15 26.59-3.15Q28.18-3.15 29.06-3.87Q29.94-4.60 29.94-5.90Q29.94-6.88 29.36-7.62Q28.77-8.36 27.66-8.79" fill="#f8f2e9"/>
  </g>
</svg>
